<svg width="260" height="70" viewBox="0 0 260 70" fill="none" xmlns="http://www.w3.org/2000/svg">
<path d="M47.248 37V35.4531L50.1133 35.2246V13.1992L47.248 12.9707V11.4062H50.1133H52.2227H55.0879V12.9707L52.2227 13.1992V35.2246H62.8574L63.0156 31.6211H64.8789V37H47.248ZM83.4062 24.6074H72.9121V35.2246H85.0059L85.1641 31.3926H87.0273V37H67.9551V35.4531L70.8203 35.2246V13.1992L67.9551 12.9707V11.4062H70.8203H86.9395V17.0312H85.0762L84.918 13.1992H72.9121V22.8145H83.4062V24.6074ZM90.9121 12.9707V11.4062H98.752V12.9707L95.8867 13.1992V35.2246L98.752 35.4531V37H90.9121V35.4531L93.7773 35.2246V13.1992L90.9121 12.9707ZM121.762 11.4062V16.8027H119.898L119.74 13.1992H112.639V35.2246L115.504 35.4531V37H107.664V35.4531L110.529 35.2246V13.1992H103.428L103.287 16.8027H101.406V11.4062H121.762ZM146.213 24.3789C146.213 28.2227 145.188 31.3516 143.137 33.7656C141.086 36.168 138.42 37.3691 135.139 37.3691C131.904 37.3691 129.273 36.1621 127.246 33.748C125.23 31.334 124.223 28.2109 124.223 24.3789V24.0449C124.223 20.2129 125.23 17.0898 127.246 14.6758C129.262 12.25 131.887 11.0371 135.121 11.0371C138.402 11.0371 141.068 12.25 143.119 14.6758C145.182 17.0898 146.213 20.2129 146.213 24.0449V24.3789ZM144.104 24.0098C144.104 20.6934 143.295 18.0098 141.678 15.959C140.061 13.9082 137.875 12.8828 135.121 12.8828C132.414 12.8828 130.27 13.9082 128.688 15.959C127.117 18.0098 126.332 20.6934 126.332 24.0098V24.3789C126.332 27.7188 127.123 30.4141 128.705 32.4648C130.287 34.5156 132.432 35.541 135.139 35.541C137.916 35.541 140.102 34.5215 141.695 32.4824C143.301 30.4316 144.104 27.7305 144.104 24.3789V24.0098ZM160.047 11.4238C162.789 11.4238 164.893 12.0215 166.357 13.2168C167.834 14.4121 168.572 16.1406 168.572 18.4023C168.572 19.7383 168.18 20.9395 167.395 22.0059C166.609 23.0723 165.502 23.8457 164.072 24.3262C165.654 24.7246 166.791 25.4395 167.482 26.4707C168.186 27.4902 168.537 28.7793 168.537 30.3379V32.6758C168.537 33.5781 168.678 34.2461 168.959 34.6797C169.24 35.1133 169.668 35.3477 170.242 35.3828L171.104 35.4355V37H169.768C168.525 37 167.658 36.5781 167.166 35.7344C166.674 34.8906 166.428 33.8594 166.428 32.6406V30.373C166.428 28.8262 165.93 27.6016 164.934 26.6992C163.949 25.7852 162.572 25.3105 160.803 25.2754H154.369V35.2246L157.234 35.4707V37H149.412V35.4707L152.277 35.2246V13.2168L149.412 12.9707V11.4238H160.047ZM154.369 23.4824H159.801C162.109 23.4824 163.797 23.0195 164.863 22.0938C165.93 21.168 166.463 19.9316 166.463 18.3848C166.463 16.7441 165.93 15.4727 164.863 14.5703C163.797 13.668 162.191 13.2168 160.047 13.2168H154.369V23.4824ZM188.752 27.4727H191.652V30.8828H188.752V33.3965L191.477 33.9238V37H180.895V33.9238L183.637 33.3965V30.8828H173.195L172.949 28.3691L183.584 11.4062H188.752V27.4727ZM177.748 27.4727H183.637V18.2441L183.531 18.209L183.109 18.9473L177.748 27.4727ZM211.621 27.0332C211.621 30.4199 210.842 32.9922 209.283 34.75C207.736 36.4961 205.639 37.3691 202.99 37.3691C200.318 37.3691 198.203 36.4961 196.645 34.75C195.086 32.9922 194.307 30.4199 194.307 27.0332V21.3906C194.307 18.0156 195.08 15.4492 196.627 13.6914C198.186 11.9219 200.295 11.0371 202.955 11.0371C205.604 11.0371 207.707 11.9219 209.266 13.6914C210.836 15.4492 211.621 18.0156 211.621 21.3906V27.0332ZM206.506 20.8633C206.506 18.8359 206.201 17.3535 205.592 16.416C204.982 15.4668 204.104 14.9922 202.955 14.9922C201.795 14.9922 200.916 15.4609 200.318 16.3984C199.721 17.3359 199.422 18.8242 199.422 20.8633V27.5254C199.422 29.5879 199.721 31.0879 200.318 32.0254C200.928 32.9629 201.818 33.4316 202.99 33.4316C204.139 33.4316 205.012 32.9629 205.609 32.0254C206.207 31.0879 206.506 29.5879 206.506 27.5254V20.8633Z" fill="#28272B"/>
<path d="M36.83 61.578L36.659 63H29.882L31.466 50.103H33.149L31.736 61.578H36.83ZM40.8018 53.883L39.7038 63H38.1288L39.2268 53.883H40.8018ZM41.4138 51.021C41.4138 51.177 41.3808 51.324 41.3148 51.462C41.2548 51.594 41.1708 51.714 41.0628 51.822C40.9608 51.924 40.8408 52.005 40.7028 52.065C40.5708 52.125 40.4328 52.155 40.2888 52.155C40.1508 52.155 40.0158 52.125 39.8838 52.065C39.7518 52.005 39.6348 51.924 39.5328 51.822C39.4368 51.714 39.3588 51.594 39.2988 51.462C39.2388 51.324 39.2088 51.177 39.2088 51.021C39.2088 50.865 39.2388 50.718 39.2988 50.58C39.3588 50.442 39.4398 50.322 39.5418 50.22C39.6438 50.112 39.7608 50.028 39.8928 49.968C40.0248 49.902 40.1598 49.869 40.2978 49.869C40.4418 49.869 40.5798 49.899 40.7118 49.959C40.8498 50.019 40.9698 50.103 41.0718 50.211C41.1738 50.313 41.2548 50.436 41.3148 50.58C41.3808 50.718 41.4138 50.865 41.4138 51.021ZM50.5483 53.883L45.9763 63H44.6443L42.2863 53.883H43.5823C43.7023 53.883 43.7983 53.916 43.8703 53.982C43.9423 54.048 43.9903 54.126 44.0143 54.216L45.3643 60.084C45.4003 60.312 45.4303 60.537 45.4543 60.759C45.4783 60.981 45.4993 61.206 45.5173 61.434C45.5833 61.212 45.6553 60.99 45.7333 60.768C45.8113 60.546 45.9013 60.318 46.0033 60.084L48.8203 54.216C48.8683 54.12 48.9343 54.042 49.0183 53.982C49.1023 53.916 49.1983 53.883 49.3063 53.883H50.5483ZM53.0865 56.421C53.3265 55.911 53.5845 55.47 53.8605 55.098C54.1425 54.72 54.4365 54.426 54.7425 54.216C55.0485 54 55.3635 53.871 55.6875 53.829C56.0115 53.781 56.3415 53.829 56.6775 53.973L56.3895 55.512C55.6095 55.2 54.9195 55.314 54.3195 55.854C53.7255 56.394 53.2425 57.369 52.8705 58.779L52.3665 63H50.8005L51.8985 53.874H52.6905C53.0565 53.874 53.2395 54.054 53.2395 54.414L53.0865 56.421ZM60.1649 61.875C60.6029 61.875 60.9989 61.755 61.3529 61.515C61.7129 61.275 62.0189 60.957 62.2709 60.561C62.5289 60.159 62.7269 59.697 62.8649 59.175C63.0029 58.653 63.0719 58.107 63.0719 57.537C63.0719 56.697 62.9039 56.067 62.5679 55.647C62.2379 55.221 61.7609 55.008 61.1369 55.008C60.6929 55.008 60.2909 55.128 59.9309 55.368C59.5769 55.602 59.2739 55.917 59.0219 56.313C58.7699 56.709 58.5749 57.168 58.4369 57.69C58.2989 58.212 58.2299 58.758 58.2299 59.328C58.2299 60.168 58.3949 60.804 58.7249 61.236C59.0549 61.662 59.5349 61.875 60.1649 61.875ZM60.0119 63.126C59.5139 63.126 59.0579 63.042 58.6439 62.874C58.2299 62.7 57.8729 62.451 57.5729 62.127C57.2729 61.803 57.0389 61.407 56.8709 60.939C56.7029 60.471 56.6189 59.937 56.6189 59.337C56.6189 58.569 56.7389 57.846 56.9789 57.168C57.2189 56.49 57.5489 55.899 57.9689 55.395C58.3889 54.885 58.8809 54.483 59.4449 54.189C60.0149 53.895 60.6269 53.748 61.2809 53.748C61.7789 53.748 62.2349 53.835 62.6489 54.009C63.0629 54.177 63.4199 54.423 63.7199 54.747C64.0199 55.071 64.2539 55.467 64.4219 55.935C64.5899 56.403 64.6739 56.934 64.6739 57.528C64.6739 58.29 64.5539 59.01 64.3139 59.688C64.0739 60.366 63.7439 60.96 63.3239 61.47C62.9099 61.98 62.4179 62.385 61.8479 62.685C61.2779 62.979 60.6659 63.126 60.0119 63.126ZM71.8299 55.341C71.7819 55.413 71.7339 55.467 71.6859 55.503C71.6379 55.533 71.5779 55.548 71.5059 55.548C71.4219 55.548 71.3289 55.515 71.2269 55.449C71.1309 55.383 71.0109 55.311 70.8669 55.233C70.7289 55.149 70.5579 55.074 70.3539 55.008C70.1499 54.936 69.9039 54.9 69.6159 54.9C69.3459 54.9 69.0999 54.939 68.8779 55.017C68.6559 55.089 68.4639 55.191 68.3019 55.323C68.1459 55.455 68.0229 55.611 67.9329 55.791C67.8489 55.965 67.8069 56.151 67.8069 56.349C67.8069 56.631 67.8999 56.856 68.0859 57.024C68.2719 57.192 68.5059 57.339 68.7879 57.465C69.0699 57.585 69.3729 57.702 69.6969 57.816C70.0209 57.93 70.3239 58.074 70.6059 58.248C70.8879 58.422 71.1219 58.644 71.3079 58.914C71.4939 59.184 71.5869 59.535 71.5869 59.967C71.5869 60.387 71.5029 60.789 71.3349 61.173C71.1729 61.557 70.9359 61.896 70.6239 62.19C70.3179 62.478 69.9459 62.709 69.5079 62.883C69.0759 63.057 68.5899 63.144 68.0499 63.144C67.4679 63.144 66.9519 63.042 66.5019 62.838C66.0579 62.628 65.6949 62.361 65.4129 62.037L65.8089 61.425C65.8629 61.347 65.9199 61.287 65.9799 61.245C66.0459 61.203 66.1299 61.182 66.2319 61.182C66.3279 61.182 66.4239 61.224 66.5199 61.308C66.6159 61.392 66.7359 61.488 66.8799 61.596C67.0239 61.698 67.2039 61.791 67.4199 61.875C67.6419 61.959 67.9209 62.001 68.2569 62.001C68.5509 62.001 68.8149 61.956 69.0489 61.866C69.2889 61.776 69.4899 61.656 69.6519 61.506C69.8199 61.356 69.9459 61.182 70.0299 60.984C70.1199 60.78 70.1649 60.564 70.1649 60.336C70.1649 60.03 70.0719 59.787 69.8859 59.607C69.6999 59.427 69.4659 59.277 69.1839 59.157C68.9019 59.037 68.5989 58.926 68.2749 58.824C67.9509 58.716 67.6479 58.581 67.3659 58.419C67.0839 58.251 66.8499 58.035 66.6639 57.771C66.4779 57.507 66.3849 57.156 66.3849 56.718C66.3849 56.334 66.4599 55.965 66.6099 55.611C66.7659 55.251 66.9879 54.933 67.2759 54.657C67.5639 54.381 67.9119 54.162 68.3199 54C68.7339 53.832 69.1989 53.748 69.7149 53.748C70.2609 53.748 70.7409 53.841 71.1549 54.027C71.5749 54.207 71.9349 54.453 72.2349 54.765L71.8299 55.341ZM79.1787 61.002C79.4067 61.32 79.6797 61.548 79.9977 61.686C80.3157 61.818 80.6397 61.884 80.9697 61.884C81.2817 61.884 81.5757 61.818 81.8517 61.686C82.1277 61.554 82.3797 61.377 82.6077 61.155C82.8357 60.927 83.0397 60.663 83.2197 60.363C83.3997 60.057 83.5497 59.733 83.6697 59.391C83.7957 59.043 83.8917 58.686 83.9577 58.32C84.0237 57.948 84.0567 57.582 84.0567 57.222C84.0567 56.508 83.9277 55.965 83.6697 55.593C83.4117 55.221 83.0487 55.035 82.5807 55.035C82.2927 55.035 82.0017 55.125 81.7077 55.305C81.4137 55.479 81.1287 55.725 80.8527 56.043C80.5827 56.361 80.3277 56.739 80.0877 57.177C79.8537 57.615 79.6497 58.095 79.4757 58.617L79.1787 61.002ZM79.6647 56.358C79.8927 55.962 80.1417 55.605 80.4117 55.287C80.6817 54.963 80.9667 54.687 81.2667 54.459C81.5667 54.231 81.8757 54.057 82.1937 53.937C82.5177 53.811 82.8477 53.748 83.1837 53.748C83.9637 53.748 84.5667 54.03 84.9927 54.594C85.4247 55.158 85.6407 55.983 85.6407 57.069C85.6407 57.561 85.5897 58.053 85.4877 58.545C85.3857 59.037 85.2387 59.508 85.0467 59.958C84.8607 60.402 84.6327 60.819 84.3627 61.209C84.0987 61.593 83.8017 61.929 83.4717 62.217C83.1477 62.499 82.7937 62.721 82.4097 62.883C82.0257 63.045 81.6237 63.126 81.2037 63.126C80.7537 63.126 80.3457 63.039 79.9797 62.865C79.6137 62.685 79.3017 62.433 79.0437 62.109L78.5577 66.087H77.0007L78.4857 53.874H79.2777C79.6377 53.874 79.8177 54.054 79.8177 54.414L79.6647 56.358ZM93.1344 54.999C93.0024 54.969 92.8704 54.951 92.7384 54.945C92.6124 54.933 92.4864 54.927 92.3604 54.927C92.0004 54.927 91.6524 54.987 91.3164 55.107C90.9804 55.221 90.6654 55.383 90.3714 55.593C90.0774 55.803 89.8104 56.055 89.5704 56.349C89.3304 56.637 89.1234 56.955 88.9494 57.303C88.7814 57.651 88.6494 58.023 88.5534 58.419C88.4574 58.809 88.4094 59.211 88.4094 59.625C88.4094 61.071 88.8714 61.794 89.7954 61.794C90.0894 61.794 90.3774 61.704 90.6594 61.524C90.9414 61.338 91.2084 61.083 91.4604 60.759C91.7184 60.429 91.9554 60.042 92.1714 59.598C92.3874 59.148 92.5794 58.656 92.7474 58.122L93.1344 54.999ZM92.5224 60.597C92.3064 60.981 92.0724 61.329 91.8204 61.641C91.5744 61.953 91.3104 62.22 91.0284 62.442C90.7524 62.658 90.4584 62.826 90.1464 62.946C89.8404 63.066 89.5224 63.126 89.1924 63.126C88.8324 63.126 88.5054 63.057 88.2114 62.919C87.9174 62.775 87.6654 62.568 87.4554 62.298C87.2514 62.022 87.0924 61.686 86.9784 61.29C86.8644 60.888 86.8074 60.429 86.8074 59.913C86.8074 59.373 86.8734 58.848 87.0054 58.338C87.1434 57.822 87.3354 57.336 87.5814 56.88C87.8334 56.424 88.1334 56.007 88.4814 55.629C88.8294 55.245 89.2164 54.915 89.6424 54.639C90.0744 54.357 90.5364 54.141 91.0284 53.991C91.5204 53.835 92.0364 53.757 92.5764 53.757C92.9664 53.757 93.3444 53.79 93.7104 53.856C94.0824 53.916 94.4484 54.024 94.8084 54.18L93.7194 63H92.8914C92.6814 63 92.5374 62.946 92.4594 62.838C92.3874 62.73 92.3514 62.598 92.3514 62.442L92.5224 60.597ZM98.3678 56.421C98.6078 55.911 98.8658 55.47 99.1418 55.098C99.4238 54.72 99.7178 54.426 100.024 54.216C100.33 54 100.645 53.871 100.969 53.829C101.293 53.781 101.623 53.829 101.959 53.973L101.671 55.512C100.891 55.2 100.201 55.314 99.6008 55.854C99.0068 56.394 98.5238 57.369 98.1518 58.779L97.6478 63H96.0818L97.1798 53.874H97.9718C98.3378 53.874 98.5208 54.054 98.5208 54.414L98.3678 56.421ZM107.988 54.999C107.856 54.969 107.724 54.951 107.592 54.945C107.466 54.933 107.34 54.927 107.214 54.927C106.854 54.927 106.506 54.987 106.17 55.107C105.834 55.221 105.519 55.383 105.225 55.593C104.931 55.803 104.664 56.055 104.424 56.349C104.184 56.637 103.977 56.955 103.803 57.303C103.635 57.651 103.503 58.023 103.407 58.419C103.311 58.809 103.263 59.211 103.263 59.625C103.263 61.071 103.725 61.794 104.649 61.794C104.943 61.794 105.231 61.704 105.513 61.524C105.795 61.338 106.062 61.083 106.314 60.759C106.572 60.429 106.809 60.042 107.025 59.598C107.241 59.148 107.433 58.656 107.601 58.122L107.988 54.999ZM107.376 60.597C107.16 60.981 106.926 61.329 106.674 61.641C106.428 61.953 106.164 62.22 105.882 62.442C105.606 62.658 105.312 62.826 105 62.946C104.694 63.066 104.376 63.126 104.046 63.126C103.686 63.126 103.359 63.057 103.065 62.919C102.771 62.775 102.519 62.568 102.309 62.298C102.105 62.022 101.946 61.686 101.832 61.29C101.718 60.888 101.661 60.429 101.661 59.913C101.661 59.373 101.727 58.848 101.859 58.338C101.997 57.822 102.189 57.336 102.435 56.88C102.687 56.424 102.987 56.007 103.335 55.629C103.683 55.245 104.07 54.915 104.496 54.639C104.928 54.357 105.39 54.141 105.882 53.991C106.374 53.835 106.89 53.757 107.43 53.757C107.82 53.757 108.198 53.79 108.564 53.856C108.936 53.916 109.302 54.024 109.662 54.18L108.573 63H107.745C107.535 63 107.391 62.946 107.313 62.838C107.241 62.73 107.205 62.598 107.205 62.442L107.376 60.597ZM121.031 55.341C120.983 55.413 120.935 55.467 120.887 55.503C120.839 55.533 120.779 55.548 120.707 55.548C120.623 55.548 120.53 55.515 120.428 55.449C120.332 55.383 120.212 55.311 120.068 55.233C119.93 55.149 119.759 55.074 119.555 55.008C119.351 54.936 119.105 54.9 118.817 54.9C118.547 54.9 118.301 54.939 118.079 55.017C117.857 55.089 117.665 55.191 117.503 55.323C117.347 55.455 117.224 55.611 117.134 55.791C117.05 55.965 117.008 56.151 117.008 56.349C117.008 56.631 117.101 56.856 117.287 57.024C117.473 57.192 117.707 57.339 117.989 57.465C118.271 57.585 118.574 57.702 118.898 57.816C119.222 57.93 119.525 58.074 119.807 58.248C120.089 58.422 120.323 58.644 120.509 58.914C120.695 59.184 120.788 59.535 120.788 59.967C120.788 60.387 120.704 60.789 120.536 61.173C120.374 61.557 120.137 61.896 119.825 62.19C119.519 62.478 119.147 62.709 118.709 62.883C118.277 63.057 117.791 63.144 117.251 63.144C116.669 63.144 116.153 63.042 115.703 62.838C115.259 62.628 114.896 62.361 114.614 62.037L115.01 61.425C115.064 61.347 115.121 61.287 115.181 61.245C115.247 61.203 115.331 61.182 115.433 61.182C115.529 61.182 115.625 61.224 115.721 61.308C115.817 61.392 115.937 61.488 116.081 61.596C116.225 61.698 116.405 61.791 116.621 61.875C116.843 61.959 117.122 62.001 117.458 62.001C117.752 62.001 118.016 61.956 118.25 61.866C118.49 61.776 118.691 61.656 118.853 61.506C119.021 61.356 119.147 61.182 119.231 60.984C119.321 60.78 119.366 60.564 119.366 60.336C119.366 60.03 119.273 59.787 119.087 59.607C118.901 59.427 118.667 59.277 118.385 59.157C118.103 59.037 117.8 58.926 117.476 58.824C117.152 58.716 116.849 58.581 116.567 58.419C116.285 58.251 116.051 58.035 115.865 57.771C115.679 57.507 115.586 57.156 115.586 56.718C115.586 56.334 115.661 55.965 115.811 55.611C115.967 55.251 116.189 54.933 116.477 54.657C116.765 54.381 117.113 54.162 117.521 54C117.935 53.832 118.4 53.748 118.916 53.748C119.462 53.748 119.942 53.841 120.356 54.027C120.776 54.207 121.136 54.453 121.436 54.765L121.031 55.341ZM130.605 53.883L129.507 63H128.715C128.325 63 128.13 62.808 128.13 62.424L128.265 60.759C127.785 61.539 127.242 62.13 126.636 62.532C126.036 62.928 125.418 63.126 124.782 63.126C124.398 63.126 124.059 63.051 123.765 62.901C123.471 62.745 123.231 62.52 123.045 62.226C122.865 61.932 122.742 61.572 122.676 61.146C122.61 60.72 122.613 60.231 122.685 59.679L123.369 53.883H124.962L124.278 59.679C124.194 60.393 124.236 60.924 124.404 61.272C124.578 61.62 124.902 61.794 125.376 61.794C125.652 61.794 125.937 61.719 126.231 61.569C126.525 61.419 126.807 61.206 127.077 60.93C127.347 60.654 127.599 60.321 127.833 59.931C128.073 59.535 128.277 59.097 128.445 58.617L129.012 53.883H130.605ZM138.134 54.999C138.002 54.969 137.87 54.951 137.738 54.945C137.612 54.933 137.486 54.927 137.36 54.927C137 54.927 136.652 54.987 136.316 55.107C135.98 55.221 135.665 55.383 135.371 55.593C135.077 55.803 134.81 56.055 134.57 56.349C134.33 56.637 134.123 56.955 133.949 57.303C133.781 57.651 133.649 58.023 133.553 58.419C133.457 58.809 133.409 59.211 133.409 59.625C133.409 61.071 133.871 61.794 134.795 61.794C135.089 61.794 135.377 61.704 135.659 61.524C135.941 61.338 136.208 61.083 136.46 60.759C136.718 60.429 136.955 60.042 137.171 59.598C137.387 59.148 137.579 58.656 137.747 58.122L138.134 54.999ZM137.522 60.597C137.306 60.981 137.072 61.329 136.82 61.641C136.574 61.953 136.31 62.22 136.028 62.442C135.752 62.658 135.458 62.826 135.146 62.946C134.84 63.066 134.522 63.126 134.192 63.126C133.832 63.126 133.505 63.057 133.211 62.919C132.917 62.775 132.665 62.568 132.455 62.298C132.251 62.022 132.092 61.686 131.978 61.29C131.864 60.888 131.807 60.429 131.807 59.913C131.807 59.373 131.873 58.848 132.005 58.338C132.143 57.822 132.335 57.336 132.581 56.88C132.833 56.424 133.133 56.007 133.481 55.629C133.829 55.245 134.216 54.915 134.642 54.639C135.074 54.357 135.536 54.141 136.028 53.991C136.52 53.835 137.036 53.757 137.576 53.757C137.966 53.757 138.344 53.79 138.71 53.856C139.082 53.916 139.448 54.024 139.808 54.18L138.719 63H137.891C137.681 63 137.537 62.946 137.459 62.838C137.387 62.73 137.351 62.598 137.351 62.442L137.522 60.597ZM151.556 54.999C151.424 54.969 151.292 54.951 151.16 54.945C151.034 54.933 150.908 54.927 150.782 54.927C150.416 54.927 150.065 54.987 149.729 55.107C149.393 55.221 149.078 55.383 148.784 55.593C148.49 55.803 148.223 56.055 147.983 56.349C147.743 56.637 147.536 56.955 147.362 57.303C147.194 57.651 147.062 58.023 146.966 58.419C146.87 58.809 146.822 59.211 146.822 59.625C146.822 60.345 146.939 60.888 147.173 61.254C147.413 61.614 147.761 61.794 148.217 61.794C148.505 61.794 148.79 61.704 149.072 61.524C149.354 61.344 149.621 61.095 149.873 60.777C150.125 60.453 150.359 60.072 150.575 59.634C150.791 59.19 150.983 58.707 151.151 58.185L151.556 54.999ZM150.818 60.804C150.608 61.158 150.38 61.479 150.134 61.767C149.894 62.049 149.639 62.292 149.369 62.496C149.105 62.7 148.826 62.856 148.532 62.964C148.238 63.072 147.932 63.126 147.614 63.126C147.254 63.126 146.927 63.057 146.633 62.919C146.339 62.775 146.087 62.568 145.877 62.298C145.667 62.022 145.505 61.686 145.391 61.29C145.277 60.888 145.22 60.429 145.22 59.913C145.22 59.373 145.286 58.848 145.418 58.338C145.556 57.822 145.748 57.336 145.994 56.88C146.246 56.424 146.546 56.007 146.894 55.629C147.248 55.245 147.638 54.915 148.064 54.639C148.496 54.357 148.958 54.141 149.45 53.991C149.942 53.835 150.458 53.757 150.998 53.757C151.388 53.757 151.766 53.79 152.132 53.856C152.498 53.916 152.861 54.024 153.221 54.18L151.754 66.087H150.746C150.638 66.087 150.548 66.066 150.476 66.024C150.404 65.988 150.347 65.937 150.305 65.871C150.269 65.811 150.245 65.739 150.233 65.655C150.221 65.571 150.221 65.487 150.233 65.403L150.818 60.804ZM162.755 53.883L161.657 63H160.865C160.475 63 160.28 62.808 160.28 62.424L160.415 60.759C159.935 61.539 159.392 62.13 158.786 62.532C158.186 62.928 157.568 63.126 156.932 63.126C156.548 63.126 156.209 63.051 155.915 62.901C155.621 62.745 155.381 62.52 155.195 62.226C155.015 61.932 154.892 61.572 154.826 61.146C154.76 60.72 154.763 60.231 154.835 59.679L155.519 53.883H157.112L156.428 59.679C156.344 60.393 156.386 60.924 156.554 61.272C156.728 61.62 157.052 61.794 157.526 61.794C157.802 61.794 158.087 61.719 158.381 61.569C158.675 61.419 158.957 61.206 159.227 60.93C159.497 60.654 159.749 60.321 159.983 59.931C160.223 59.535 160.427 59.097 160.595 58.617L161.162 53.883H162.755ZM170.285 54.999C170.153 54.969 170.021 54.951 169.889 54.945C169.763 54.933 169.637 54.927 169.511 54.927C169.151 54.927 168.803 54.987 168.467 55.107C168.131 55.221 167.816 55.383 167.522 55.593C167.228 55.803 166.961 56.055 166.721 56.349C166.481 56.637 166.274 56.955 166.1 57.303C165.932 57.651 165.8 58.023 165.704 58.419C165.608 58.809 165.56 59.211 165.56 59.625C165.56 61.071 166.022 61.794 166.946 61.794C167.24 61.794 167.528 61.704 167.81 61.524C168.092 61.338 168.359 61.083 168.611 60.759C168.869 60.429 169.106 60.042 169.322 59.598C169.538 59.148 169.73 58.656 169.898 58.122L170.285 54.999ZM169.673 60.597C169.457 60.981 169.223 61.329 168.971 61.641C168.725 61.953 168.461 62.22 168.179 62.442C167.903 62.658 167.609 62.826 167.297 62.946C166.991 63.066 166.673 63.126 166.343 63.126C165.983 63.126 165.656 63.057 165.362 62.919C165.068 62.775 164.816 62.568 164.606 62.298C164.402 62.022 164.243 61.686 164.129 61.29C164.015 60.888 163.958 60.429 163.958 59.913C163.958 59.373 164.024 58.848 164.156 58.338C164.294 57.822 164.486 57.336 164.732 56.88C164.984 56.424 165.284 56.007 165.632 55.629C165.98 55.245 166.367 54.915 166.793 54.639C167.225 54.357 167.687 54.141 168.179 53.991C168.671 53.835 169.187 53.757 169.727 53.757C170.117 53.757 170.495 53.79 170.861 53.856C171.233 53.916 171.599 54.024 171.959 54.18L170.87 63H170.042C169.832 63 169.688 62.946 169.61 62.838C169.538 62.73 169.502 62.598 169.502 62.442L169.673 60.597ZM175.518 56.421C175.758 55.911 176.016 55.47 176.292 55.098C176.574 54.72 176.868 54.426 177.174 54.216C177.48 54 177.795 53.871 178.119 53.829C178.443 53.781 178.773 53.829 179.109 53.973L178.821 55.512C178.041 55.2 177.351 55.314 176.751 55.854C176.157 56.394 175.674 57.369 175.302 58.779L174.798 63H173.232L174.33 53.874H175.122C175.488 53.874 175.671 54.054 175.671 54.414L175.518 56.421ZM183.686 54.909C183.308 54.909 182.96 54.987 182.642 55.143C182.324 55.299 182.042 55.515 181.796 55.791C181.55 56.061 181.34 56.382 181.166 56.754C180.992 57.12 180.857 57.516 180.761 57.942C181.685 57.828 182.426 57.699 182.984 57.555C183.542 57.405 183.971 57.246 184.271 57.078C184.571 56.904 184.769 56.718 184.865 56.52C184.961 56.322 185.009 56.115 185.009 55.899C185.009 55.791 184.985 55.68 184.937 55.566C184.889 55.446 184.811 55.338 184.703 55.242C184.601 55.146 184.466 55.068 184.298 55.008C184.13 54.942 183.926 54.909 183.686 54.909ZM186.224 61.317C185.918 61.635 185.618 61.908 185.324 62.136C185.03 62.358 184.73 62.544 184.424 62.694C184.124 62.844 183.806 62.952 183.47 63.018C183.14 63.09 182.783 63.126 182.399 63.126C181.877 63.126 181.409 63.039 180.995 62.865C180.581 62.691 180.23 62.445 179.942 62.127C179.654 61.803 179.432 61.413 179.276 60.957C179.12 60.501 179.042 59.991 179.042 59.427C179.042 58.959 179.09 58.494 179.186 58.032C179.288 57.564 179.432 57.12 179.618 56.7C179.81 56.28 180.041 55.89 180.311 55.53C180.587 55.17 180.899 54.861 181.247 54.603C181.601 54.339 181.988 54.132 182.408 53.982C182.834 53.832 183.29 53.757 183.776 53.757C184.238 53.757 184.637 53.823 184.973 53.955C185.309 54.087 185.585 54.255 185.801 54.459C186.017 54.663 186.176 54.888 186.278 55.134C186.386 55.38 186.44 55.614 186.44 55.836C186.44 56.232 186.359 56.598 186.197 56.934C186.035 57.264 185.738 57.564 185.306 57.834C184.874 58.098 184.28 58.329 183.524 58.527C182.768 58.725 181.796 58.884 180.608 59.004C180.608 59.07 180.605 59.136 180.599 59.202C180.599 59.262 180.599 59.325 180.599 59.391C180.599 60.195 180.773 60.81 181.121 61.236C181.475 61.656 182.006 61.866 182.714 61.866C183.002 61.866 183.257 61.836 183.479 61.776C183.707 61.716 183.908 61.644 184.082 61.56C184.262 61.47 184.418 61.374 184.55 61.272C184.688 61.164 184.811 61.068 184.919 60.984C185.033 60.894 185.138 60.819 185.234 60.759C185.33 60.699 185.426 60.669 185.522 60.669C185.636 60.669 185.738 60.72 185.828 60.822L186.224 61.317ZM189.959 56.187C190.445 55.383 190.994 54.777 191.606 54.369C192.218 53.955 192.848 53.748 193.496 53.748C193.88 53.748 194.216 53.826 194.504 53.982C194.798 54.132 195.035 54.354 195.215 54.648C195.401 54.942 195.527 55.305 195.593 55.737C195.659 56.163 195.659 56.649 195.593 57.195L194.909 63H193.316L194 57.195C194.084 56.475 194.039 55.944 193.865 55.602C193.691 55.254 193.37 55.08 192.902 55.08C192.614 55.08 192.32 55.158 192.02 55.314C191.726 55.47 191.441 55.692 191.165 55.98C190.889 56.268 190.631 56.616 190.391 57.024C190.157 57.426 189.956 57.876 189.788 58.374L189.266 63H187.664L188.762 53.874H189.554C189.914 53.874 190.094 54.054 190.094 54.414L189.959 56.187ZM197.823 61.281C197.823 61.245 197.823 61.2 197.823 61.146C197.823 61.086 197.826 61.002 197.832 60.894C197.844 60.786 197.859 60.645 197.877 60.471C197.901 60.297 197.931 60.069 197.967 59.787L198.525 55.224H197.508C197.424 55.224 197.355 55.197 197.301 55.143C197.253 55.083 197.235 54.993 197.247 54.873L197.319 54.234L198.723 54.045L199.407 51.228C199.437 51.138 199.482 51.066 199.542 51.012C199.608 50.952 199.689 50.922 199.785 50.922H200.622L200.235 54.063H202.629L202.494 55.224H200.091L199.542 59.706C199.512 59.952 199.488 60.15 199.47 60.3C199.452 60.45 199.437 60.57 199.425 60.66C199.419 60.75 199.413 60.813 199.407 60.849C199.407 60.885 199.407 60.912 199.407 60.93C199.407 61.236 199.479 61.464 199.623 61.614C199.767 61.758 199.959 61.83 200.199 61.83C200.361 61.83 200.499 61.809 200.613 61.767C200.733 61.719 200.838 61.668 200.928 61.614C201.018 61.56 201.093 61.512 201.153 61.47C201.213 61.422 201.264 61.398 201.306 61.398C201.36 61.398 201.399 61.41 201.423 61.434C201.453 61.458 201.48 61.497 201.504 61.551L201.846 62.316C201.552 62.574 201.216 62.778 200.838 62.928C200.466 63.072 200.091 63.144 199.713 63.144C199.131 63.144 198.672 62.985 198.336 62.667C198.006 62.349 197.835 61.887 197.823 61.281ZM207.926 54.909C207.548 54.909 207.2 54.987 206.882 55.143C206.564 55.299 206.282 55.515 206.036 55.791C205.79 56.061 205.58 56.382 205.406 56.754C205.232 57.12 205.097 57.516 205.001 57.942C205.925 57.828 206.666 57.699 207.224 57.555C207.782 57.405 208.211 57.246 208.511 57.078C208.811 56.904 209.009 56.718 209.105 56.52C209.201 56.322 209.249 56.115 209.249 55.899C209.249 55.791 209.225 55.68 209.177 55.566C209.129 55.446 209.051 55.338 208.943 55.242C208.841 55.146 208.706 55.068 208.538 55.008C208.37 54.942 208.166 54.909 207.926 54.909ZM210.464 61.317C210.158 61.635 209.858 61.908 209.564 62.136C209.27 62.358 208.97 62.544 208.664 62.694C208.364 62.844 208.046 62.952 207.71 63.018C207.38 63.09 207.023 63.126 206.639 63.126C206.117 63.126 205.649 63.039 205.235 62.865C204.821 62.691 204.47 62.445 204.182 62.127C203.894 61.803 203.672 61.413 203.516 60.957C203.36 60.501 203.282 59.991 203.282 59.427C203.282 58.959 203.33 58.494 203.426 58.032C203.528 57.564 203.672 57.12 203.858 56.7C204.05 56.28 204.281 55.89 204.551 55.53C204.827 55.17 205.139 54.861 205.487 54.603C205.841 54.339 206.228 54.132 206.648 53.982C207.074 53.832 207.53 53.757 208.016 53.757C208.478 53.757 208.877 53.823 209.213 53.955C209.549 54.087 209.825 54.255 210.041 54.459C210.257 54.663 210.416 54.888 210.518 55.134C210.626 55.38 210.68 55.614 210.68 55.836C210.68 56.232 210.599 56.598 210.437 56.934C210.275 57.264 209.978 57.564 209.546 57.834C209.114 58.098 208.52 58.329 207.764 58.527C207.008 58.725 206.036 58.884 204.848 59.004C204.848 59.07 204.845 59.136 204.839 59.202C204.839 59.262 204.839 59.325 204.839 59.391C204.839 60.195 205.013 60.81 205.361 61.236C205.715 61.656 206.246 61.866 206.954 61.866C207.242 61.866 207.497 61.836 207.719 61.776C207.947 61.716 208.148 61.644 208.322 61.56C208.502 61.47 208.658 61.374 208.79 61.272C208.928 61.164 209.051 61.068 209.159 60.984C209.273 60.894 209.378 60.819 209.474 60.759C209.57 60.699 209.666 60.669 209.762 60.669C209.876 60.669 209.978 60.72 210.068 60.822L210.464 61.317ZM214.199 56.187C214.685 55.383 215.234 54.777 215.846 54.369C216.458 53.955 217.088 53.748 217.736 53.748C218.12 53.748 218.456 53.826 218.744 53.982C219.038 54.132 219.275 54.354 219.455 54.648C219.641 54.942 219.767 55.305 219.833 55.737C219.899 56.163 219.899 56.649 219.833 57.195L219.149 63H217.556L218.24 57.195C218.324 56.475 218.279 55.944 218.105 55.602C217.931 55.254 217.61 55.08 217.142 55.08C216.854 55.08 216.56 55.158 216.26 55.314C215.966 55.47 215.681 55.692 215.405 55.98C215.129 56.268 214.871 56.616 214.631 57.024C214.397 57.426 214.196 57.876 214.028 58.374L213.506 63H211.904L213.002 53.874H213.794C214.154 53.874 214.334 54.054 214.334 54.414L214.199 56.187ZM227.695 54.999C227.563 54.969 227.431 54.951 227.299 54.945C227.173 54.933 227.047 54.927 226.921 54.927C226.561 54.927 226.213 54.987 225.877 55.107C225.541 55.221 225.226 55.383 224.932 55.593C224.638 55.803 224.371 56.055 224.131 56.349C223.891 56.637 223.684 56.955 223.51 57.303C223.342 57.651 223.21 58.023 223.114 58.419C223.018 58.809 222.97 59.211 222.97 59.625C222.97 61.071 223.432 61.794 224.356 61.794C224.65 61.794 224.938 61.704 225.22 61.524C225.502 61.338 225.769 61.083 226.021 60.759C226.279 60.429 226.516 60.042 226.732 59.598C226.948 59.148 227.14 58.656 227.308 58.122L227.695 54.999ZM227.083 60.597C226.867 60.981 226.633 61.329 226.381 61.641C226.135 61.953 225.871 62.22 225.589 62.442C225.313 62.658 225.019 62.826 224.707 62.946C224.401 63.066 224.083 63.126 223.753 63.126C223.393 63.126 223.066 63.057 222.772 62.919C222.478 62.775 222.226 62.568 222.016 62.298C221.812 62.022 221.653 61.686 221.539 61.29C221.425 60.888 221.368 60.429 221.368 59.913C221.368 59.373 221.434 58.848 221.566 58.338C221.704 57.822 221.896 57.336 222.142 56.88C222.394 56.424 222.694 56.007 223.042 55.629C223.39 55.245 223.777 54.915 224.203 54.639C224.635 54.357 225.097 54.141 225.589 53.991C226.081 53.835 226.597 53.757 227.137 53.757C227.527 53.757 227.905 53.79 228.271 53.856C228.643 53.916 229.009 54.024 229.369 54.18L228.28 63H227.452C227.242 63 227.098 62.946 227.02 62.838C226.948 62.73 226.912 62.598 226.912 62.442L227.083 60.597Z" fill="#FFC149"/>
</svg>
